<?xml version="1.0" standalone="no"?>
<!DOCTYPE svg PUBLIC "-//W3C//DTD SVG 20010904//EN"
 "http://www.w3.org/TR/2001/REC-SVG-20010904/DTD/svg10.dtd">
<svg version="1.0" xmlns="http://www.w3.org/2000/svg"
 width="1024.000000pt" height="1024.000000pt" viewBox="0 0 1024.000000 1024.000000"

 preserveAspectRatio="xMidYMid meet">

<g transform="translate(0.000000,1024.000000) scale(0.100000,-0.100000)"
fill="#FFFFFF" stroke="none">
<path d="M4915 7628 c-152 -17 -424 -78 -573 -129 -187 -65 -451 -194 -612
-299 -201 -133 -355 -268 -551 -485 -191 -213 -390 -554 -489 -840 -46 -134
-99 -405 -100 -511 0 -50 30 -94 65 -94 40 0 82 60 90 127 27 255 92 478 209
714 130 262 241 414 466 640 292 294 592 483 970 611 145 49 197 62 340 87
601 105 1241 -7 1734 -304 403 -242 725 -577 964 -1005 56 -100 150 -343 186
-478 37 -143 65 -204 108 -236 23 -16 33 -18 55 -10 27 10 28 12 26 84 -2 122
-103 419 -229 673 -63 127 -212 354 -319 487 -99 123 -281 305 -408 409 -310
252 -763 460 -1147 526 -256 44 -570 58 -785 33z"/>
<path d="M4215 6253 c-16 -9 -46 -28 -65 -43 -19 -15 -59 -43 -89 -64 -54 -36
-54 -36 -65 -14 -27 53 -212 108 -364 108 -166 0 -331 -68 -448 -185 -156
-155 -225 -353 -181 -522 20 -78 75 -161 126 -194 59 -38 100 -38 140 0 41 38
40 73 0 119 -55 62 -73 116 -73 217 0 85 2 94 38 163 23 42 57 89 82 111 66
58 171 109 251 123 70 11 83 11 352 -25 7 -1 -14 -24 -49 -51 -87 -68 -231
-266 -326 -446 -22 -41 -64 -136 -93 -210 -29 -74 -59 -150 -67 -168 -8 -18
-14 -39 -14 -46 0 -10 -30 -15 -122 -19 -154 -6 -250 -27 -356 -76 -177 -82
-297 -218 -363 -411 -27 -81 -33 -279 -10 -324 27 -50 76 -71 166 -70 113 1
208 47 332 161 71 65 223 250 240 293 8 19 32 58 53 85 21 28 48 71 61 98 13
26 30 47 38 47 36 0 145 -32 225 -65 46 -19 94 -35 106 -35 20 0 20 -2 14
-172 -8 -198 1 -257 50 -357 17 -36 53 -88 79 -117 45 -50 141 -112 197 -129
14 -4 44 -16 68 -27 53 -23 76 -20 80 11 7 48 -27 107 -95 167 -46 41 -74 75
-92 114 -25 52 -26 63 -26 220 0 111 6 194 17 255 9 50 22 146 28 215 10 114
27 232 81 575 10 66 26 174 34 240 9 66 22 152 30 190 8 39 19 105 25 148 5
43 13 89 16 103 7 28 8 28 -31 7z m-275 -397 c-20 -52 -51 -224 -76 -415 -13
-107 -29 -214 -35 -239 -5 -25 -12 -87 -16 -139 -3 -51 -9 -96 -14 -98 -4 -3
-27 6 -51 20 -23 14 -98 43 -165 66 -68 22 -123 44 -123 48 0 3 20 39 45 79
25 40 56 101 69 135 13 34 61 135 106 225 77 153 87 169 173 257 51 51 93 92
95 91 1 -2 -2 -15 -8 -30z m-685 -936 c7 -11 -58 -118 -121 -200 -115 -150
-297 -282 -416 -304 l-38 -7 0 50 c0 148 128 337 279 411 93 46 279 78 296 50z"/>
<path d="M6280 6019 c-80 -32 -122 -139 -86 -222 38 -89 136 -122 226 -75 86
44 114 140 62 216 -55 82 -127 111 -202 81z"/>
<path d="M4385 5486 c-5 -3 -27 -7 -48 -11 -43 -7 -77 -36 -77 -65 0 -14 14
-26 50 -41 61 -26 107 -76 116 -125 7 -36 -11 -176 -76 -619 -44 -298 -44
-293 -18 -345 13 -25 38 -54 55 -66 39 -26 106 -37 148 -26 24 7 29 14 27 33
-13 111 -11 153 12 284 15 77 42 237 61 355 45 270 64 331 120 386 41 40 115
74 159 74 40 0 83 -36 101 -84 17 -44 17 -53 1 -179 -10 -72 -29 -202 -42
-287 -36 -224 -54 -366 -54 -425 0 -42 5 -57 32 -89 40 -49 82 -66 160 -66 87
0 95 7 74 59 -24 62 -20 121 30 411 25 146 49 294 55 330 11 75 61 204 92 238
31 33 154 92 193 92 23 0 44 -9 65 -28 46 -41 48 -91 10 -308 -52 -304 -71
-441 -71 -523 0 -67 4 -86 31 -139 36 -73 85 -117 153 -137 91 -27 195 -14
217 26 15 28 -1 48 -62 78 -29 14 -62 39 -74 54 -34 47 -26 159 33 479 55 293
62 384 37 459 -24 71 -83 140 -145 172 -50 26 -62 28 -140 25 -116 -5 -181
-36 -271 -127 l-68 -70 -21 45 c-29 58 -110 129 -169 145 -25 7 -76 12 -113
12 -95 -2 -163 -35 -243 -118 l-62 -66 -6 30 c-8 38 -69 107 -118 132 -35 18
-132 33 -154 25z"/>
<path d="M6140 5469 c-34 -10 -80 -50 -80 -70 0 -5 15 -9 34 -9 62 0 116 -64
116 -138 0 -38 -61 -470 -80 -567 -53 -270 -9 -405 155 -481 89 -42 211 -26
237 31 18 40 -5 73 -71 99 -104 42 -116 92 -77 326 44 268 86 561 86 607 0
144 -161 245 -320 202z"/>
<path d="M6719 5470 c-43 -13 -76 -39 -89 -70 -15 -37 -6 -50 47 -69 127 -45
133 -80 74 -439 -89 -543 -95 -591 -80 -618 7 -15 29 -37 49 -50 29 -20 47
-24 111 -24 88 0 91 3 82 78 -3 30 3 89 16 157 11 61 29 171 40 245 33 221 69
416 84 451 46 108 199 211 271 183 22 -8 20 -22 -8 -85 -14 -30 -28 -75 -31
-102 -7 -45 -6 -49 33 -87 34 -34 46 -40 83 -40 55 0 89 22 139 89 44 59 55
99 47 176 -6 64 -26 103 -73 149 -122 118 -331 70 -441 -101 -18 -29 -35 -53
-36 -53 -2 0 -4 12 -5 26 -2 32 -64 112 -112 146 -63 45 -135 58 -201 38z"/>
<path d="M7732 4816 c-17 -19 -44 -64 -62 -100 -30 -63 -121 -193 -174 -248
-22 -23 -24 -31 -16 -53 8 -21 16 -25 47 -25 76 0 154 58 237 175 55 78 86
153 86 209 0 82 -63 104 -118 42z"/>
<path d="M7539 4175 c-63 -33 -100 -72 -144 -152 -133 -239 -401 -553 -631
-739 -369 -296 -746 -463 -1199 -530 -167 -25 -487 -30 -641 -10 -539 69
-1010 278 -1378 612 -125 113 -195 187 -271 287 -64 83 -77 89 -140 63 -61
-26 -43 -76 84 -227 248 -297 601 -547 989 -700 477 -189 916 -236 1462 -154
296 44 692 201 969 385 358 237 590 486 904 970 38 60 87 172 87 202 0 25 -34
23 -91 -7z"/>
<path d="M2771 4037 c-11 -14 -10 -21 8 -46 37 -51 79 -70 172 -77 113 -8 137
2 135 54 0 22 -4 38 -8 36 -5 -3 -8 1 -8 9 0 21 -31 28 -165 34 -103 5 -122 3
-134 -10z"/>
<path d="M5161 3674 c-12 -15 -21 -34 -21 -43 0 -23 35 -60 68 -72 23 -9 30
-7 49 16 13 14 23 39 23 56 0 65 -79 93 -119 43z"/>
</g>
</svg>
